%TF.GenerationSoftware,KiCad,Pcbnew,8.0.9-1.fc41*%
%TF.CreationDate,2025-03-17T15:20:04+02:00*%
%TF.ProjectId,electronics-application-project,656c6563-7472-46f6-9e69-63732d617070,rev?*%
%TF.SameCoordinates,Original*%
%TF.FileFunction,Copper,L2,Bot*%
%TF.FilePolarity,Positive*%
%FSLAX46Y46*%
G04 Gerber Fmt 4.6, Leading zero omitted, Abs format (unit mm)*
G04 Created by KiCad (PCBNEW 8.0.9-1.fc41) date 2025-03-17 15:20:04*
%MOMM*%
%LPD*%
G01*
G04 APERTURE LIST*
%TA.AperFunction,ComponentPad*%
%ADD10C,2.000000*%
%TD*%
%TA.AperFunction,ComponentPad*%
%ADD11R,1.600000X1.600000*%
%TD*%
%TA.AperFunction,ComponentPad*%
%ADD12C,1.600000*%
%TD*%
%TA.AperFunction,ComponentPad*%
%ADD13C,1.397000*%
%TD*%
%TA.AperFunction,ComponentPad*%
%ADD14C,2.209800*%
%TD*%
%TA.AperFunction,ComponentPad*%
%ADD15C,3.759200*%
%TD*%
%TA.AperFunction,ComponentPad*%
%ADD16R,1.700000X1.700000*%
%TD*%
%TA.AperFunction,ComponentPad*%
%ADD17O,1.700000X1.700000*%
%TD*%
%TA.AperFunction,ComponentPad*%
%ADD18R,1.320800X1.320800*%
%TD*%
%TA.AperFunction,ComponentPad*%
%ADD19C,1.320800*%
%TD*%
%TA.AperFunction,ViaPad*%
%ADD20C,0.800000*%
%TD*%
%TA.AperFunction,Conductor*%
%ADD21C,0.200000*%
%TD*%
%TA.AperFunction,Conductor*%
%ADD22C,0.600000*%
%TD*%
G04 APERTURE END LIST*
D10*
%TO.P,L1,1,1*%
%TO.N,Net-(D1-K)*%
X133862601Y-76370601D03*
%TO.P,L1,2,NC*%
%TO.N,unconnected-(L1-NC-Pad2)*%
X138866401Y-76370601D03*
%TO.P,L1,3,1*%
%TO.N,3.3V_D*%
X138866401Y-80358401D03*
%TO.P,L1,4,NC*%
%TO.N,unconnected-(L1-NC-Pad4)*%
X133862601Y-80358401D03*
%TD*%
D11*
%TO.P,C9,1*%
%TO.N,3.3V_D*%
X125100000Y-80352651D03*
D12*
%TO.P,C9,2*%
%TO.N,GND*%
X125100000Y-76852651D03*
%TD*%
D13*
%TO.P,U2,1,VC2-*%
%TO.N,GND*%
X127455799Y-86824251D03*
%TO.P,U2,2,VC1-*%
%TO.N,unconnected-(U2-VC1--Pad2)*%
X129995799Y-88094251D03*
%TO.P,U2,3,RD-*%
%TO.N,Net-(U2-RD-)*%
X127455799Y-89364251D03*
%TO.P,U2,4,RCT*%
%TO.N,Net-(U2-RCT)*%
X129995799Y-90634251D03*
%TO.P,U2,5,RD+*%
%TO.N,Net-(U2-RD+)*%
X127455799Y-91904251D03*
%TO.P,U2,6,VC2+*%
%TO.N,Net-(U2-VC2+)*%
X129995799Y-93174251D03*
%TO.P,U2,7,VC1+*%
%TO.N,unconnected-(U2-VC1+-Pad7)*%
X127455799Y-94444251D03*
%TO.P,U2,8,TD-*%
%TO.N,Net-(U2-TD-)*%
X129995799Y-95714251D03*
%TO.P,U2,9,TCT*%
%TO.N,Net-(U2-TCT)*%
X127455799Y-96984251D03*
%TO.P,U2,10,TD+*%
%TO.N,Net-(U2-TD+)*%
X129995799Y-98254251D03*
D14*
%TO.P,U2,15,Shield*%
%TO.N,Net-(C19-Pad1)*%
X124155831Y-84664253D03*
%TO.P,U2,16,Shield*%
X124155831Y-100414249D03*
D15*
%TO.P,U2,17*%
%TO.N,N/C*%
X121105799Y-86824251D03*
%TO.P,U2,18*%
X121105799Y-98254251D03*
%TD*%
D16*
%TO.P,J1,1,Pin_1*%
%TO.N,/MISO*%
X152975000Y-73725000D03*
D17*
%TO.P,J1,2,Pin_2*%
%TO.N,Net-(J1-Pin_2)*%
X152975000Y-76265000D03*
%TO.P,J1,3,Pin_3*%
%TO.N,/SCLK*%
X155515000Y-73725000D03*
%TO.P,J1,4,Pin_4*%
%TO.N,/MOSI*%
X155515000Y-76265000D03*
%TO.P,J1,5,Pin_5*%
%TO.N,Net-(J1-Pin_5)*%
X158055000Y-73725000D03*
%TO.P,J1,6,Pin_6*%
%TO.N,Net-(J1-Pin_6)*%
X158055000Y-76265000D03*
%TD*%
D18*
%TO.P,U3,1,FB*%
%TO.N,3.3V_D*%
X119110000Y-81810000D03*
D19*
%TO.P,U3,2,SIGGND*%
%TO.N,GND*%
X116570000Y-81810000D03*
%TO.P,U3,3,ON/OFF*%
X114030000Y-81810000D03*
%TO.P,U3,4,PWRGND*%
X111490000Y-81810000D03*
%TO.P,U3,5,VIN*%
%TO.N,Net-(U2-VC2+)*%
X111490000Y-74190000D03*
%TO.P,U3,6,NC*%
%TO.N,unconnected-(U3-NC-Pad6)*%
X114030000Y-74190000D03*
%TO.P,U3,7,OUTPUT*%
%TO.N,Net-(D1-K)*%
X116570000Y-74190000D03*
%TO.P,U3,8,NC*%
%TO.N,unconnected-(U3-NC-Pad8)*%
X119110000Y-74190000D03*
%TD*%
D20*
%TO.N,GND*%
X127400000Y-100937500D03*
X140400000Y-84437500D03*
X142600000Y-84437500D03*
X138200000Y-84437500D03*
X147750000Y-87083600D03*
X144237500Y-99775000D03*
X119000000Y-76600000D03*
X113837500Y-76500000D03*
X122562500Y-91100000D03*
X137700000Y-98337500D03*
X151600000Y-99662500D03*
X158600000Y-99737500D03*
X146700000Y-94200000D03*
X149300000Y-91500000D03*
X144900000Y-84862500D03*
X144700000Y-79537500D03*
X141500000Y-97700000D03*
%TO.N,Net-(U1-TXP)*%
X145500000Y-92800003D03*
X135600000Y-98000000D03*
%TO.N,Net-(U1-TXN)*%
X135600000Y-95500000D03*
X145500000Y-91800000D03*
%TO.N,/MISO*%
X151900000Y-81365000D03*
%TO.N,/SCLK*%
X151904300Y-82635000D03*
%TO.N,Net-(J1-Pin_2)*%
X151904300Y-83905000D03*
%TO.N,Net-(J1-Pin_5)*%
X159295700Y-83905000D03*
%TD*%
D21*
%TO.N,Net-(U1-TXN)*%
X142900000Y-92100000D02*
G75*
G03*
X140900000Y-94100000I0J-2000000D01*
G01*
X136014214Y-95914214D02*
G75*
G03*
X137428427Y-96499981I1414186J1414214D01*
G01*
X138900000Y-96500000D02*
G75*
G03*
X140900000Y-94500000I0J2000000D01*
G01*
X135600000Y-95500000D02*
X136014214Y-95914214D01*
X145300000Y-92100000D02*
X145300000Y-92000000D01*
X137428427Y-96500000D02*
X138900000Y-96500000D01*
X145300000Y-92000000D02*
X145500000Y-91800000D01*
X140900000Y-94500000D02*
X140900000Y-94100000D01*
X142900000Y-92100000D02*
X145300000Y-92100000D01*
%TO.N,Net-(J1-Pin_2)*%
X152975000Y-76265000D02*
X151200000Y-78040000D01*
X151200000Y-83200700D02*
X151904300Y-83905000D01*
X151200000Y-78040000D02*
X151200000Y-83200700D01*
%TO.N,GND*%
X149300000Y-91500000D02*
X149300000Y-91600000D01*
X116570000Y-83970000D02*
X116570000Y-81810000D01*
X149300000Y-91500000D02*
X147750000Y-89950000D01*
X132500000Y-82000000D02*
X127300000Y-76800000D01*
X126800000Y-82400000D02*
X121800000Y-82400000D01*
X137700000Y-98337500D02*
X140862500Y-98337500D01*
X134937500Y-84437500D02*
X132500000Y-82000000D01*
X113837500Y-76500000D02*
X113837500Y-77737500D01*
X147662500Y-84862500D02*
X147800000Y-85000000D01*
X146700000Y-97312500D02*
X144237500Y-99775000D01*
X125100000Y-76852651D02*
X119252651Y-76852651D01*
X144700000Y-84662500D02*
X144900000Y-84862500D01*
X149300000Y-91600000D02*
X146700000Y-94200000D01*
X141500000Y-97700000D02*
X143575000Y-99775000D01*
X115400000Y-78600000D02*
X118200000Y-78600000D01*
X135100000Y-100937500D02*
X127400000Y-100937500D01*
X114700000Y-78600000D02*
X115400000Y-78600000D01*
X138200000Y-84437500D02*
X134937500Y-84437500D01*
X140862500Y-98337500D02*
X141500000Y-97700000D01*
X146700000Y-94200000D02*
X146700000Y-97312500D01*
X144900000Y-84862500D02*
X147662500Y-84862500D01*
X144475000Y-84437500D02*
X144900000Y-84862500D01*
X127455799Y-85836423D02*
X126800000Y-85180624D01*
X119400000Y-91100000D02*
X115400000Y-87100000D01*
X142600000Y-84437500D02*
X144475000Y-84437500D01*
X127247349Y-76852651D02*
X125100000Y-76852651D01*
X127300000Y-76800000D02*
X127247349Y-76852651D01*
X116600000Y-84000000D02*
X116570000Y-83970000D01*
X113837500Y-77737500D02*
X114700000Y-78600000D01*
X126800000Y-85180624D02*
X126800000Y-82400000D01*
X122562500Y-91100000D02*
X119400000Y-91100000D01*
X118200000Y-78600000D02*
X118300000Y-78500000D01*
X127455799Y-86824251D02*
X127455799Y-85836423D01*
X147750000Y-85050000D02*
X147750000Y-87083600D01*
X147750000Y-89950000D02*
X147750000Y-87083600D01*
X144275000Y-99737500D02*
X158600000Y-99737500D01*
X121800000Y-82400000D02*
X120200000Y-84000000D01*
X118300000Y-78200000D02*
X119000000Y-77500000D01*
X118300000Y-78500000D02*
X118300000Y-78200000D01*
X119252651Y-76852651D02*
X119000000Y-76600000D01*
X138200000Y-84437500D02*
X140400000Y-84437500D01*
X143575000Y-99775000D02*
X144237500Y-99775000D01*
X140400000Y-84437500D02*
X142600000Y-84437500D01*
X115400000Y-87100000D02*
X115400000Y-78600000D01*
X119000000Y-77500000D02*
X119000000Y-76600000D01*
X147800000Y-85000000D02*
X147750000Y-85050000D01*
X120200000Y-84000000D02*
X116600000Y-84000000D01*
X144700000Y-79537500D02*
X144700000Y-84662500D01*
X137700000Y-98337500D02*
X135100000Y-100937500D01*
X144237500Y-99775000D02*
X144275000Y-99737500D01*
D22*
%TO.N,Net-(U2-VC2+)*%
X129995799Y-93174251D02*
X118174251Y-93174251D01*
X118174251Y-93174251D02*
X110329600Y-85329600D01*
X110329600Y-85329600D02*
X110329600Y-75350400D01*
X110329600Y-75350400D02*
X111490000Y-74190000D01*
D21*
%TO.N,/MISO*%
X154125000Y-74875000D02*
X152975000Y-73725000D01*
X151900000Y-81365000D02*
X154125000Y-79140000D01*
X154125000Y-79140000D02*
X154125000Y-74875000D01*
%TO.N,/SCLK*%
X151904300Y-82635000D02*
X156665000Y-77874300D01*
X156665000Y-77874300D02*
X156665000Y-74875000D01*
X156665000Y-74875000D02*
X155515000Y-73725000D01*
%TO.N,Net-(J1-Pin_5)*%
X159295700Y-83905000D02*
X159295700Y-74965700D01*
X159295700Y-74965700D02*
X158055000Y-73725000D01*
%TO.N,Net-(U1-TXP)*%
X136114214Y-97485786D02*
X135600000Y-98000000D01*
X143300000Y-92600000D02*
X145299997Y-92600000D01*
X139078013Y-96900000D02*
G75*
G03*
X140492221Y-96314207I-13J2000000D01*
G01*
X137528427Y-96900000D02*
X139078013Y-96900000D01*
X140492227Y-96314213D02*
X140714214Y-96092226D01*
X140714214Y-96092226D02*
G75*
G03*
X141300009Y-94678013I-1414214J1414226D01*
G01*
X143300000Y-92600000D02*
G75*
G03*
X141300000Y-94600000I0J-2000000D01*
G01*
X137528427Y-96900000D02*
G75*
G03*
X136114200Y-97485772I-27J-2000000D01*
G01*
X145299997Y-92600000D02*
X145500000Y-92800003D01*
X141300000Y-94678013D02*
X141300000Y-94600000D01*
%TD*%
%TA.AperFunction,Conductor*%
%TO.N,GND*%
G36*
X160942539Y-71520185D02*
G01*
X160988294Y-71572989D01*
X160999500Y-71624500D01*
X160999500Y-102875500D01*
X160979815Y-102942539D01*
X160927011Y-102988294D01*
X160875500Y-102999500D01*
X110124500Y-102999500D01*
X110057461Y-102979815D01*
X110011706Y-102927011D01*
X110000500Y-102875500D01*
X110000500Y-99338959D01*
X115777296Y-99338959D01*
X115806444Y-99485491D01*
X115806447Y-99485501D01*
X115863619Y-99623528D01*
X115863626Y-99623541D01*
X115946631Y-99747766D01*
X115946634Y-99747770D01*
X116052277Y-99853413D01*
X116052281Y-99853416D01*
X116176506Y-99936421D01*
X116176519Y-99936428D01*
X116314546Y-99993600D01*
X116314551Y-99993602D01*
X116314555Y-99993602D01*
X116314556Y-99993603D01*
X116461088Y-100022751D01*
X116461091Y-100022751D01*
X116610505Y-100022751D01*
X116709089Y-100003140D01*
X116757043Y-99993602D01*
X116884405Y-99940847D01*
X116895074Y-99936428D01*
X116895074Y-99936427D01*
X116895081Y-99936425D01*
X117019313Y-99853416D01*
X117124962Y-99747767D01*
X117207971Y-99623535D01*
X117265148Y-99485497D01*
X117279684Y-99412420D01*
X117294297Y-99338960D01*
X117807298Y-99338960D01*
X117836446Y-99485492D01*
X117836449Y-99485502D01*
X117893621Y-99623529D01*
X117893628Y-99623542D01*
X117976633Y-99747767D01*
X117976636Y-99747771D01*
X118082279Y-99853414D01*
X118082283Y-99853417D01*
X118206508Y-99936422D01*
X118206521Y-99936429D01*
X118344546Y-99993600D01*
X118344553Y-99993603D01*
X118344557Y-99993603D01*
X118344558Y-99993604D01*
X118491090Y-100022752D01*
X118491093Y-100022752D01*
X118640507Y-100022752D01*
X118739091Y-100003141D01*
X118787045Y-99993603D01*
X118925083Y-99936426D01*
X119049315Y-99853417D01*
X119111915Y-99790816D01*
X119173236Y-99757333D01*
X119242928Y-99762317D01*
X119292823Y-99796740D01*
X119419202Y-99940847D01*
X119602381Y-100101490D01*
X119653777Y-100146563D01*
X119913195Y-100319901D01*
X120048990Y-100386867D01*
X120193017Y-100457894D01*
X120193027Y-100457898D01*
X120404498Y-100529682D01*
X120488462Y-100558184D01*
X120794467Y-100619052D01*
X121105799Y-100639458D01*
X121417131Y-100619052D01*
X121723136Y-100558184D01*
X121922171Y-100490620D01*
X122018570Y-100457898D01*
X122018580Y-100457894D01*
X122298403Y-100319901D01*
X122354452Y-100282449D01*
X122421126Y-100261572D01*
X122488506Y-100280055D01*
X122535197Y-100332034D01*
X122546959Y-100395275D01*
X122545467Y-100414243D01*
X122545467Y-100414245D01*
X122565292Y-100666161D01*
X122624283Y-100911879D01*
X122720985Y-101145339D01*
X122853015Y-101360791D01*
X122853016Y-101360793D01*
X122853017Y-101360795D01*
X122853019Y-101360797D01*
X123017132Y-101552948D01*
X123209283Y-101717061D01*
X123209285Y-101717062D01*
X123209286Y-101717063D01*
X123209288Y-101717064D01*
X123424740Y-101849094D01*
X123658200Y-101945796D01*
X123719629Y-101960543D01*
X123903915Y-102004787D01*
X124155831Y-102024613D01*
X124407747Y-102004787D01*
X124653461Y-101945796D01*
X124886921Y-101849094D01*
X125102379Y-101717061D01*
X125294530Y-101552948D01*
X125458643Y-101360797D01*
X125590676Y-101145339D01*
X125687378Y-100911879D01*
X125746369Y-100666165D01*
X125766195Y-100414249D01*
X125746369Y-100162333D01*
X125687378Y-99916619D01*
X125661200Y-99853418D01*
X125590676Y-99683158D01*
X125458646Y-99467706D01*
X125458645Y-99467704D01*
X125458644Y-99467703D01*
X125458643Y-99467701D01*
X125294530Y-99275550D01*
X125102379Y-99111437D01*
X125102377Y-99111435D01*
X125102375Y-99111434D01*
X125102373Y-99111433D01*
X124886921Y-98979403D01*
X124653461Y-98882701D01*
X124407743Y-98823710D01*
X124407744Y-98823710D01*
X124155831Y-98803885D01*
X123903918Y-98823710D01*
X123658200Y-98882701D01*
X123599339Y-98907082D01*
X123529870Y-98914549D01*
X123467391Y-98883274D01*
X123431739Y-98823184D01*
X123430271Y-98768329D01*
X123448819Y-98675086D01*
X123470600Y-98565583D01*
X123491006Y-98254251D01*
X123470600Y-97942919D01*
X123409732Y-97636914D01*
X123363516Y-97500765D01*
X123309446Y-97341479D01*
X123309442Y-97341469D01*
X123171454Y-97061657D01*
X123171445Y-97061642D01*
X123133774Y-97005263D01*
X122998111Y-96802229D01*
X122886685Y-96675172D01*
X122792395Y-96567654D01*
X122557822Y-96361940D01*
X122540482Y-96350354D01*
X122429866Y-96276442D01*
X122298408Y-96188604D01*
X122298405Y-96188602D01*
X122298403Y-96188601D01*
X122218597Y-96149245D01*
X122018580Y-96050607D01*
X122018570Y-96050603D01*
X121723149Y-95950322D01*
X121723143Y-95950320D01*
X121723136Y-95950318D01*
X121417131Y-95889450D01*
X121105799Y-95869044D01*
X120794467Y-95889450D01*
X120794461Y-95889451D01*
X120794456Y-95889452D01*
X120488467Y-95950317D01*
X120488462Y-95950318D01*
X120488457Y-95950319D01*
X120488448Y-95950322D01*
X120193027Y-96050603D01*
X120193017Y-96050607D01*
X119913205Y-96188595D01*
X119913190Y-96188604D01*
X119653775Y-96361940D01*
X119419202Y-96567654D01*
X119213488Y-96802227D01*
X119040152Y-97061642D01*
X119040143Y-97061657D01*
X118902155Y-97341469D01*
X118902151Y-97341479D01*
X118801870Y-97636900D01*
X118801867Y-97636909D01*
X118801866Y-97636914D01*
X118740998Y-97942919D01*
X118720593Y-98254250D01*
X118720592Y-98254258D01*
X118728417Y-98373642D01*
X118713160Y-98441825D01*
X118663461Y-98490936D01*
X118604683Y-98505752D01*
X118491091Y-98505752D01*
X118344558Y-98534899D01*
X118344548Y-98534902D01*
X118206521Y-98592074D01*
X118206508Y-98592081D01*
X118082283Y-98675086D01*
X118082279Y-98675089D01*
X117976636Y-98780732D01*
X117976633Y-98780736D01*
X117893628Y-98904961D01*
X117893621Y-98904974D01*
X117836449Y-99043001D01*
X117836446Y-99043011D01*
X117807299Y-99189543D01*
X117807299Y-99189545D01*
X117807299Y-99189546D01*
X117807299Y-99338958D01*
X117807299Y-99338960D01*
X117807298Y-99338960D01*
X117294297Y-99338960D01*
X117294297Y-99338959D01*
X117294297Y-99189542D01*
X117265149Y-99043010D01*
X117265148Y-99043006D01*
X117265148Y-99043005D01*
X117238804Y-98979404D01*
X117207974Y-98904973D01*
X117207967Y-98904960D01*
X117124962Y-98780735D01*
X117124959Y-98780731D01*
X117019316Y-98675088D01*
X117019312Y-98675085D01*
X116895087Y-98592080D01*
X116895074Y-98592073D01*
X116757047Y-98534901D01*
X116757037Y-98534898D01*
X116610505Y-98505751D01*
X116610503Y-98505751D01*
X116461091Y-98505751D01*
X116461089Y-98505751D01*
X116314556Y-98534898D01*
X116314546Y-98534901D01*
X116176519Y-98592073D01*
X116176506Y-98592080D01*
X116052281Y-98675085D01*
X116052277Y-98675088D01*
X115946634Y-98780731D01*
X115946631Y-98780735D01*
X115863626Y-98904960D01*
X115863619Y-98904973D01*
X115806447Y-99043000D01*
X115806444Y-99043010D01*
X115777297Y-99189542D01*
X115777297Y-99189543D01*
X115777297Y-99189545D01*
X115777297Y-99338957D01*
X115777297Y-99338959D01*
X115777296Y-99338959D01*
X110000500Y-99338959D01*
X110000500Y-86431940D01*
X110020185Y-86364901D01*
X110072989Y-86319146D01*
X110142147Y-86309202D01*
X110205703Y-86338227D01*
X110212181Y-86344259D01*
X117663958Y-93796037D01*
X117663962Y-93796040D01*
X117795065Y-93883641D01*
X117795078Y-93883648D01*
X117940749Y-93943986D01*
X117940754Y-93943988D01*
X118089894Y-93973654D01*
X118095404Y-93974750D01*
X118095407Y-93974751D01*
X118095409Y-93974751D01*
X118253094Y-93974751D01*
X126178593Y-93974751D01*
X126245632Y-93994436D01*
X126291387Y-94047240D01*
X126301331Y-94116398D01*
X126297859Y-94132685D01*
X126272165Y-94222988D01*
X126272164Y-94222991D01*
X126251662Y-94444250D01*
X126251662Y-94444251D01*
X126272164Y-94665510D01*
X126272165Y-94665512D01*
X126332973Y-94879230D01*
X126332979Y-94879245D01*
X126432021Y-95078147D01*
X126565932Y-95255475D01*
X126627657Y-95311744D01*
X126723428Y-95399051D01*
X126730143Y-95405172D01*
X126730145Y-95405174D01*
X126919065Y-95522148D01*
X126919071Y-95522151D01*
X126928826Y-95525930D01*
X127116474Y-95598625D01*
X127171873Y-95641197D01*
X127195464Y-95706964D01*
X127179753Y-95775044D01*
X127129729Y-95823823D01*
X127116483Y-95829872D01*
X127037170Y-95860599D01*
X126919071Y-95906350D01*
X126919065Y-95906353D01*
X126730145Y-96023327D01*
X126730143Y-96023329D01*
X126565932Y-96173026D01*
X126432021Y-96350354D01*
X126332979Y-96549256D01*
X126332973Y-96549271D01*
X126272165Y-96762989D01*
X126272164Y-96762991D01*
X126251662Y-96984250D01*
X126251662Y-96984251D01*
X126272164Y-97205510D01*
X126272165Y-97205512D01*
X126332973Y-97419230D01*
X126332979Y-97419245D01*
X126432021Y-97618147D01*
X126565932Y-97795475D01*
X126712200Y-97928815D01*
X126727671Y-97942919D01*
X126730143Y-97945172D01*
X126730145Y-97945174D01*
X126919065Y-98062148D01*
X126919071Y-98062151D01*
X126948005Y-98073360D01*
X127126271Y-98142421D01*
X127344695Y-98183251D01*
X127344698Y-98183251D01*
X127566900Y-98183251D01*
X127566903Y-98183251D01*
X127785327Y-98142421D01*
X127992529Y-98062150D01*
X128181454Y-97945173D01*
X128345667Y-97795473D01*
X128479577Y-97618147D01*
X128578623Y-97419235D01*
X128639433Y-97205511D01*
X128659936Y-96984251D01*
X128653166Y-96911197D01*
X128639433Y-96762991D01*
X128639432Y-96762989D01*
X128630452Y-96731428D01*
X128578623Y-96549267D01*
X128479577Y-96350355D01*
X128357429Y-96188604D01*
X128345665Y-96173026D01*
X128181454Y-96023329D01*
X128181452Y-96023327D01*
X127992532Y-95906353D01*
X127992526Y-95906351D01*
X127795121Y-95829875D01*
X127739724Y-95787305D01*
X127716133Y-95721538D01*
X127731844Y-95653458D01*
X127781868Y-95604679D01*
X127795107Y-95598631D01*
X127992529Y-95522150D01*
X128181454Y-95405173D01*
X128345667Y-95255473D01*
X128479577Y-95078147D01*
X128578623Y-94879235D01*
X128639433Y-94665511D01*
X128659936Y-94444251D01*
X128653166Y-94371197D01*
X128639433Y-94222991D01*
X128639432Y-94222988D01*
X128613739Y-94132685D01*
X128614326Y-94062818D01*
X128652592Y-94004359D01*
X128716390Y-93975869D01*
X128733005Y-93974751D01*
X129046131Y-93974751D01*
X129113170Y-93994436D01*
X129129669Y-94007114D01*
X129270143Y-94135172D01*
X129270145Y-94135174D01*
X129459065Y-94252148D01*
X129459071Y-94252151D01*
X129501492Y-94268584D01*
X129656474Y-94328625D01*
X129711873Y-94371197D01*
X129735464Y-94436964D01*
X129719753Y-94505044D01*
X129669729Y-94553823D01*
X129656483Y-94559872D01*
X129577170Y-94590599D01*
X129459071Y-94636350D01*
X129459065Y-94636353D01*
X129270145Y-94753327D01*
X129270143Y-94753329D01*
X129105932Y-94903026D01*
X128972021Y-95080354D01*
X128872979Y-95279256D01*
X128872973Y-95279271D01*
X128812165Y-95492989D01*
X128812164Y-95492991D01*
X128791662Y-95714250D01*
X128791662Y-95714251D01*
X128812164Y-95935510D01*
X128812165Y-95935512D01*
X128872973Y-96149230D01*
X128872979Y-96149245D01*
X128972021Y-96348147D01*
X129105932Y-96525475D01*
X129270143Y-96675172D01*
X129270145Y-96675174D01*
X129459065Y-96792148D01*
X129459071Y-96792151D01*
X129485086Y-96802229D01*
X129656474Y-96868625D01*
X129711873Y-96911197D01*
X129735464Y-96976964D01*
X129719753Y-97045044D01*
X129669729Y-97093823D01*
X129656483Y-97099872D01*
X129577170Y-97130599D01*
X129459071Y-97176350D01*
X129459065Y-97176353D01*
X129270145Y-97293327D01*
X129270143Y-97293329D01*
X129105932Y-97443026D01*
X128972021Y-97620354D01*
X128872979Y-97819256D01*
X128872973Y-97819271D01*
X128812165Y-98032989D01*
X128812164Y-98032991D01*
X128791662Y-98254250D01*
X128791662Y-98254251D01*
X128812164Y-98475510D01*
X128812165Y-98475512D01*
X128872973Y-98689230D01*
X128872979Y-98689245D01*
X128972021Y-98888147D01*
X129105932Y-99065475D01*
X129270143Y-99215172D01*
X129270145Y-99215174D01*
X129459065Y-99332148D01*
X129459071Y-99332151D01*
X129488005Y-99343360D01*
X129666271Y-99412421D01*
X129884695Y-99453251D01*
X129884698Y-99453251D01*
X130106900Y-99453251D01*
X130106903Y-99453251D01*
X130325327Y-99412421D01*
X130532529Y-99332150D01*
X130721454Y-99215173D01*
X130885667Y-99065473D01*
X131019577Y-98888147D01*
X131118623Y-98689235D01*
X131179433Y-98475511D01*
X131199936Y-98254251D01*
X131179433Y-98032991D01*
X131118623Y-97819267D01*
X131106573Y-97795068D01*
X131055511Y-97692521D01*
X131019577Y-97620355D01*
X130885667Y-97443029D01*
X130885665Y-97443026D01*
X130721454Y-97293329D01*
X130721452Y-97293327D01*
X130532532Y-97176353D01*
X130532526Y-97176351D01*
X130335121Y-97099875D01*
X130279724Y-97057305D01*
X130256133Y-96991538D01*
X130271844Y-96923458D01*
X130321868Y-96874679D01*
X130335107Y-96868631D01*
X130532529Y-96792150D01*
X130721454Y-96675173D01*
X130885667Y-96525473D01*
X131019577Y-96348147D01*
X131118623Y-96149235D01*
X131179433Y-95935511D01*
X131199936Y-95714251D01*
X131197527Y-95688259D01*
X131180082Y-95500000D01*
X134694540Y-95500000D01*
X134714326Y-95688256D01*
X134714327Y-95688259D01*
X134772818Y-95868277D01*
X134772821Y-95868284D01*
X134867467Y-96032216D01*
X134972827Y-96149230D01*
X134994129Y-96172888D01*
X135147265Y-96284148D01*
X135147270Y-96284151D01*
X135320192Y-96361142D01*
X135320197Y-96361144D01*
X135505354Y-96400500D01*
X135599876Y-96400500D01*
X135666915Y-96420185D01*
X135687557Y-96436819D01*
X135692855Y-96442117D01*
X135921223Y-96624229D01*
X135935480Y-96633187D01*
X135981772Y-96685521D01*
X135992421Y-96754575D01*
X135964046Y-96818423D01*
X135946821Y-96835129D01*
X135792868Y-96957900D01*
X135749842Y-97000924D01*
X135749829Y-97000936D01*
X135745498Y-97005266D01*
X135745498Y-97005267D01*
X135687582Y-97063182D01*
X135626262Y-97096666D01*
X135599903Y-97099500D01*
X135505354Y-97099500D01*
X135472897Y-97106398D01*
X135320197Y-97138855D01*
X135320192Y-97138857D01*
X135147270Y-97215848D01*
X135147265Y-97215851D01*
X134994129Y-97327111D01*
X134867466Y-97467785D01*
X134772821Y-97631715D01*
X134772818Y-97631722D01*
X134719612Y-97795475D01*
X134714326Y-97811744D01*
X134694540Y-98000000D01*
X134714326Y-98188256D01*
X134714327Y-98188259D01*
X134772818Y-98368277D01*
X134772821Y-98368284D01*
X134867467Y-98532216D01*
X134921369Y-98592080D01*
X134994129Y-98672888D01*
X135147265Y-98784148D01*
X135147270Y-98784151D01*
X135320192Y-98861142D01*
X135320197Y-98861144D01*
X135505354Y-98900500D01*
X135505355Y-98900500D01*
X135694644Y-98900500D01*
X135694646Y-98900500D01*
X135879803Y-98861144D01*
X136052730Y-98784151D01*
X136205871Y-98672888D01*
X136332533Y-98532216D01*
X136427179Y-98368284D01*
X136485674Y-98188256D01*
X136505460Y-98000000D01*
X136505460Y-97999997D01*
X136505460Y-97995854D01*
X136506138Y-97993544D01*
X136506139Y-97993537D01*
X136506140Y-97993537D01*
X136525145Y-97928815D01*
X136547698Y-97902628D01*
X136670358Y-97795061D01*
X136683219Y-97785194D01*
X136821918Y-97692521D01*
X136835956Y-97684415D01*
X136985576Y-97610633D01*
X137000546Y-97604432D01*
X137158520Y-97550810D01*
X137174160Y-97546619D01*
X137337786Y-97514073D01*
X137353850Y-97511959D01*
X137524680Y-97500764D01*
X137532788Y-97500500D01*
X137601333Y-97500501D01*
X137601337Y-97500500D01*
X139005103Y-97500500D01*
X139026646Y-97500500D01*
X139026677Y-97500509D01*
X139078017Y-97500509D01*
X139224062Y-97500509D01*
X139224062Y-97500508D01*
X139470141Y-97472780D01*
X139514296Y-97467805D01*
X139514296Y-97467804D01*
X139514304Y-97467804D01*
X139799063Y-97402808D01*
X140074754Y-97306337D01*
X140337910Y-97179606D01*
X140585223Y-97024208D01*
X140813581Y-96842096D01*
X140858259Y-96797416D01*
X140858263Y-96797414D01*
X140916847Y-96738829D01*
X140947070Y-96708605D01*
X141194733Y-96460942D01*
X141194734Y-96460939D01*
X141200865Y-96454809D01*
X141200949Y-96454713D01*
X141242086Y-96413578D01*
X141242086Y-96413577D01*
X141242090Y-96413574D01*
X141424201Y-96185216D01*
X141579599Y-95937905D01*
X141706329Y-95674749D01*
X141802799Y-95399059D01*
X141867795Y-95114302D01*
X141900500Y-94824057D01*
X141900500Y-94678017D01*
X141900500Y-94605103D01*
X141900500Y-94604875D01*
X141900882Y-94595146D01*
X141912184Y-94451538D01*
X141916964Y-94390791D01*
X141920006Y-94371586D01*
X141966720Y-94177009D01*
X141972726Y-94158524D01*
X142049303Y-93973650D01*
X142058136Y-93956317D01*
X142059581Y-93953959D01*
X142162687Y-93785706D01*
X142174117Y-93769976D01*
X142233453Y-93700503D01*
X142304066Y-93617825D01*
X142317825Y-93604066D01*
X142469976Y-93474117D01*
X142485706Y-93462687D01*
X142656320Y-93358134D01*
X142673650Y-93349303D01*
X142858524Y-93272726D01*
X142877009Y-93266720D01*
X143071586Y-93220006D01*
X143090791Y-93216964D01*
X143295146Y-93200881D01*
X143304875Y-93200500D01*
X143372914Y-93200500D01*
X144619828Y-93200500D01*
X144686867Y-93220185D01*
X144727214Y-93262499D01*
X144767466Y-93332217D01*
X144767467Y-93332219D01*
X144894129Y-93472891D01*
X145047265Y-93584151D01*
X145047270Y-93584154D01*
X145220192Y-93661145D01*
X145220197Y-93661147D01*
X145405354Y-93700503D01*
X145405355Y-93700503D01*
X145594644Y-93700503D01*
X145594646Y-93700503D01*
X145779803Y-93661147D01*
X145952730Y-93584154D01*
X146105871Y-93472891D01*
X146232533Y-93332219D01*
X146327179Y-93168287D01*
X146385674Y-92988259D01*
X146405460Y-92800003D01*
X146385674Y-92611747D01*
X146327179Y-92431719D01*
X146286927Y-92362000D01*
X146270454Y-92294100D01*
X146286927Y-92238002D01*
X146327179Y-92168284D01*
X146385674Y-91988256D01*
X146405460Y-91800000D01*
X146385674Y-91611744D01*
X146327179Y-91431716D01*
X146232533Y-91267784D01*
X146105871Y-91127112D01*
X146058960Y-91093029D01*
X145952734Y-91015851D01*
X145952729Y-91015848D01*
X145779807Y-90938857D01*
X145779802Y-90938855D01*
X145634001Y-90907865D01*
X145594646Y-90899500D01*
X145405354Y-90899500D01*
X145372897Y-90906398D01*
X145220197Y-90938855D01*
X145220192Y-90938857D01*
X145047270Y-91015848D01*
X145047265Y-91015851D01*
X144894129Y-91127111D01*
X144767465Y-91267785D01*
X144669571Y-91437344D01*
X144666925Y-91435816D01*
X144630397Y-91479006D01*
X144563598Y-91499491D01*
X144562115Y-91499500D01*
X142753952Y-91499500D01*
X142463728Y-91532199D01*
X142463714Y-91532202D01*
X142178955Y-91597196D01*
X142178953Y-91597197D01*
X141903261Y-91693665D01*
X141640109Y-91820393D01*
X141392795Y-91975791D01*
X141164435Y-92157901D01*
X140957901Y-92364435D01*
X140775791Y-92592795D01*
X140620393Y-92840109D01*
X140493665Y-93103261D01*
X140397197Y-93378953D01*
X140397196Y-93378955D01*
X140332202Y-93663714D01*
X140332199Y-93663728D01*
X140299500Y-93953952D01*
X140299500Y-94495124D01*
X140299118Y-94504853D01*
X140283035Y-94709202D01*
X140279991Y-94728420D01*
X140233282Y-94922979D01*
X140227269Y-94941485D01*
X140150697Y-95126345D01*
X140141863Y-95143682D01*
X140037319Y-95314282D01*
X140025882Y-95330023D01*
X139895933Y-95482174D01*
X139882174Y-95495933D01*
X139730023Y-95625882D01*
X139714282Y-95637319D01*
X139543682Y-95741863D01*
X139526345Y-95750697D01*
X139341485Y-95827269D01*
X139322979Y-95833282D01*
X139128420Y-95879991D01*
X139109202Y-95883035D01*
X138904854Y-95899118D01*
X138895125Y-95899500D01*
X137508944Y-95899500D01*
X137508928Y-95899499D01*
X137432483Y-95899499D01*
X137424375Y-95899234D01*
X137253854Y-95888060D01*
X137237773Y-95885943D01*
X137074170Y-95853403D01*
X137058502Y-95849205D01*
X136900547Y-95795588D01*
X136885562Y-95789381D01*
X136735952Y-95715604D01*
X136721904Y-95707494D01*
X136583206Y-95614821D01*
X136570339Y-95604948D01*
X136570032Y-95604679D01*
X136547512Y-95584929D01*
X136510088Y-95525930D01*
X136505949Y-95504662D01*
X136505459Y-95500004D01*
X136505460Y-95500000D01*
X136485674Y-95311744D01*
X136427179Y-95131716D01*
X136332533Y-94967784D01*
X136205871Y-94827112D01*
X136201672Y-94824061D01*
X136052734Y-94715851D01*
X136052729Y-94715848D01*
X135879807Y-94638857D01*
X135879802Y-94638855D01*
X135721006Y-94605103D01*
X135694646Y-94599500D01*
X135505354Y-94599500D01*
X135478994Y-94605103D01*
X135320197Y-94638855D01*
X135320192Y-94638857D01*
X135147270Y-94715848D01*
X135147265Y-94715851D01*
X134994129Y-94827111D01*
X134867466Y-94967785D01*
X134772821Y-95131715D01*
X134772818Y-95131722D01*
X134724882Y-95279256D01*
X134714326Y-95311744D01*
X134694540Y-95500000D01*
X131180082Y-95500000D01*
X131179433Y-95492991D01*
X131179432Y-95492989D01*
X131154446Y-95405174D01*
X131118623Y-95279267D01*
X131019577Y-95080355D01*
X130907899Y-94932469D01*
X130885665Y-94903026D01*
X130721454Y-94753329D01*
X130721452Y-94753327D01*
X130532532Y-94636353D01*
X130532526Y-94636351D01*
X130335121Y-94559875D01*
X130279724Y-94517305D01*
X130256133Y-94451538D01*
X130271844Y-94383458D01*
X130321868Y-94334679D01*
X130335107Y-94328631D01*
X130532529Y-94252150D01*
X130721454Y-94135173D01*
X130885667Y-93985473D01*
X131019577Y-93808147D01*
X131118623Y-93609235D01*
X131179433Y-93395511D01*
X131199936Y-93174251D01*
X131179433Y-92952991D01*
X131118623Y-92739267D01*
X131019577Y-92540355D01*
X130892920Y-92372633D01*
X130885665Y-92363026D01*
X130721454Y-92213329D01*
X130721452Y-92213327D01*
X130532532Y-92096353D01*
X130532526Y-92096351D01*
X130335121Y-92019875D01*
X130279724Y-91977305D01*
X130256133Y-91911538D01*
X130271844Y-91843458D01*
X130321868Y-91794679D01*
X130335107Y-91788631D01*
X130532529Y-91712150D01*
X130721454Y-91595173D01*
X130885667Y-91445473D01*
X131019577Y-91268147D01*
X131118623Y-91069235D01*
X131179433Y-90855511D01*
X131199936Y-90634251D01*
X131193166Y-90561197D01*
X131179433Y-90412991D01*
X131179432Y-90412989D01*
X131154446Y-90325174D01*
X131118623Y-90199267D01*
X131019577Y-90000355D01*
X130885667Y-89823029D01*
X130885665Y-89823026D01*
X130721454Y-89673329D01*
X130721452Y-89673327D01*
X130532532Y-89556353D01*
X130532526Y-89556351D01*
X130335121Y-89479875D01*
X130279724Y-89437305D01*
X130256133Y-89371538D01*
X130271844Y-89303458D01*
X130321868Y-89254679D01*
X130335107Y-89248631D01*
X130532529Y-89172150D01*
X130721454Y-89055173D01*
X130885667Y-88905473D01*
X131019577Y-88728147D01*
X131118623Y-88529235D01*
X131179433Y-88315511D01*
X131199936Y-88094251D01*
X131179433Y-87872991D01*
X131118623Y-87659267D01*
X131019577Y-87460355D01*
X130885667Y-87283029D01*
X130885665Y-87283026D01*
X130721454Y-87133329D01*
X130721452Y-87133327D01*
X130532532Y-87016353D01*
X130532526Y-87016350D01*
X130424879Y-86974648D01*
X130325327Y-86936081D01*
X130106903Y-86895251D01*
X129884695Y-86895251D01*
X129666271Y-86936081D01*
X129616494Y-86955364D01*
X129459071Y-87016350D01*
X129459065Y-87016353D01*
X129270145Y-87133327D01*
X129270143Y-87133329D01*
X129105932Y-87283026D01*
X128972021Y-87460354D01*
X128872979Y-87659256D01*
X128872973Y-87659271D01*
X128812165Y-87872989D01*
X128812164Y-87872991D01*
X128791662Y-88094250D01*
X128791662Y-88094251D01*
X128812164Y-88315510D01*
X128812165Y-88315512D01*
X128872973Y-88529230D01*
X128872979Y-88529245D01*
X128972021Y-88728147D01*
X129105932Y-88905475D01*
X129270143Y-89055172D01*
X129270145Y-89055174D01*
X129459065Y-89172148D01*
X129459071Y-89172151D01*
X129501492Y-89188584D01*
X129656474Y-89248625D01*
X129711873Y-89291197D01*
X129735464Y-89356964D01*
X129719753Y-89425044D01*
X129669729Y-89473823D01*
X129656483Y-89479872D01*
X129577170Y-89510599D01*
X129459071Y-89556350D01*
X129459065Y-89556353D01*
X129270145Y-89673327D01*
X129270143Y-89673329D01*
X129105932Y-89823026D01*
X128972021Y-90000354D01*
X128872979Y-90199256D01*
X128872973Y-90199271D01*
X128812165Y-90412989D01*
X128812164Y-90412991D01*
X128791662Y-90634250D01*
X128791662Y-90634251D01*
X128812164Y-90855510D01*
X128812165Y-90855512D01*
X128872973Y-91069230D01*
X128872979Y-91069245D01*
X128972021Y-91268147D01*
X129105932Y-91445475D01*
X129270143Y-91595172D01*
X129270145Y-91595174D01*
X129459065Y-91712148D01*
X129459071Y-91712151D01*
X129501492Y-91728584D01*
X129656474Y-91788625D01*
X129711873Y-91831197D01*
X129735464Y-91896964D01*
X129719753Y-91965044D01*
X129669729Y-92013823D01*
X129656483Y-92019872D01*
X129577170Y-92050599D01*
X129459071Y-92096350D01*
X129459065Y-92096353D01*
X129270145Y-92213327D01*
X129270143Y-92213329D01*
X129129669Y-92341388D01*
X129066865Y-92372005D01*
X129046131Y-92373751D01*
X128733005Y-92373751D01*
X128665966Y-92354066D01*
X128620211Y-92301262D01*
X128610267Y-92232104D01*
X128613739Y-92215817D01*
X128639432Y-92125513D01*
X128639433Y-92125510D01*
X128649783Y-92013823D01*
X128659936Y-91904251D01*
X128653166Y-91831197D01*
X128639433Y-91682991D01*
X128639432Y-91682989D01*
X128614446Y-91595174D01*
X128578623Y-91469267D01*
X128562727Y-91437344D01*
X128530347Y-91372316D01*
X128479577Y-91270355D01*
X128371405Y-91127112D01*
X128345665Y-91093026D01*
X128181454Y-90943329D01*
X128181452Y-90943327D01*
X127992532Y-90826353D01*
X127992526Y-90826351D01*
X127795121Y-90749875D01*
X127739724Y-90707305D01*
X127716133Y-90641538D01*
X127731844Y-90573458D01*
X127781868Y-90524679D01*
X127795107Y-90518631D01*
X127992529Y-90442150D01*
X128181454Y-90325173D01*
X128345667Y-90175473D01*
X128479577Y-89998147D01*
X128578623Y-89799235D01*
X128639433Y-89585511D01*
X128659936Y-89364251D01*
X128653166Y-89291197D01*
X128639433Y-89142991D01*
X128639432Y-89142989D01*
X128635218Y-89128179D01*
X128578623Y-88929267D01*
X128479577Y-88730355D01*
X128345667Y-88553029D01*
X128345665Y-88553026D01*
X128181454Y-88403329D01*
X128181452Y-88403327D01*
X127992532Y-88286353D01*
X127992526Y-88286350D01*
X127845898Y-88229546D01*
X127794432Y-88209608D01*
X127739031Y-88167036D01*
X127715441Y-88101269D01*
X127731152Y-88033189D01*
X127781176Y-87984410D01*
X127794434Y-87978355D01*
X127992301Y-87901701D01*
X127992305Y-87901699D01*
X128108036Y-87830041D01*
X127539894Y-87261898D01*
X127627370Y-87238459D01*
X127728729Y-87179940D01*
X127811488Y-87097181D01*
X127870007Y-86995822D01*
X127893446Y-86908345D01*
X128463587Y-87478486D01*
X128463588Y-87478486D01*
X128479148Y-87457883D01*
X128479149Y-87457880D01*
X128578149Y-87259064D01*
X128578155Y-87259049D01*
X128638938Y-87045419D01*
X128638939Y-87045417D01*
X128659433Y-86824251D01*
X128659433Y-86824250D01*
X128638939Y-86603084D01*
X128638938Y-86603082D01*
X128578155Y-86389452D01*
X128578149Y-86389437D01*
X128479150Y-86190621D01*
X128479148Y-86190618D01*
X128463587Y-86170013D01*
X127893446Y-86740155D01*
X127870007Y-86652680D01*
X127811488Y-86551321D01*
X127728729Y-86468562D01*
X127627370Y-86410043D01*
X127539893Y-86386603D01*
X128108036Y-85818459D01*
X128108035Y-85818458D01*
X127992308Y-85746803D01*
X127992302Y-85746800D01*
X127785191Y-85666566D01*
X127566854Y-85625751D01*
X127344744Y-85625751D01*
X127126406Y-85666566D01*
X126919294Y-85746801D01*
X126803560Y-85818459D01*
X127371705Y-86386603D01*
X127284228Y-86410043D01*
X127182869Y-86468562D01*
X127100110Y-86551321D01*
X127041591Y-86652680D01*
X127018151Y-86740156D01*
X126448009Y-86170013D01*
X126432450Y-86190618D01*
X126432445Y-86190625D01*
X126333448Y-86389437D01*
X126333442Y-86389452D01*
X126272659Y-86603082D01*
X126272658Y-86603084D01*
X126252165Y-86824250D01*
X126252165Y-86824251D01*
X126272658Y-87045417D01*
X126272659Y-87045419D01*
X126333442Y-87259049D01*
X126333448Y-87259064D01*
X126432445Y-87457877D01*
X126432450Y-87457885D01*
X126448008Y-87478486D01*
X127018151Y-86908344D01*
X127041591Y-86995822D01*
X127100110Y-87097181D01*
X127182869Y-87179940D01*
X127284228Y-87238459D01*
X127371704Y-87261898D01*
X126803560Y-87830041D01*
X126803561Y-87830042D01*
X126919289Y-87901698D01*
X126919295Y-87901700D01*
X127117164Y-87978355D01*
X127172565Y-88020928D01*
X127196156Y-88086695D01*
X127180445Y-88154775D01*
X127130421Y-88203554D01*
X127117164Y-88209608D01*
X126919080Y-88286346D01*
X126919065Y-88286353D01*
X126730145Y-88403327D01*
X126730143Y-88403329D01*
X126565932Y-88553026D01*
X126432021Y-88730354D01*
X126332979Y-88929256D01*
X126332973Y-88929271D01*
X126272165Y-89142989D01*
X126272164Y-89142991D01*
X126251662Y-89364250D01*
X126251662Y-89364251D01*
X126272164Y-89585510D01*
X126272165Y-89585512D01*
X126332973Y-89799230D01*
X126332979Y-89799245D01*
X126432021Y-89998147D01*
X126565932Y-90175475D01*
X126730143Y-90325172D01*
X126730145Y-90325174D01*
X126919065Y-90442148D01*
X126919071Y-90442151D01*
X126961492Y-90458584D01*
X127116474Y-90518625D01*
X127171873Y-90561197D01*
X127195464Y-90626964D01*
X127179753Y-90695044D01*
X127129729Y-90743823D01*
X127116483Y-90749872D01*
X127037170Y-90780599D01*
X126919071Y-90826350D01*
X126919065Y-90826353D01*
X126730145Y-90943327D01*
X126730143Y-90943329D01*
X126565932Y-91093026D01*
X126432021Y-91270354D01*
X126332979Y-91469256D01*
X126332973Y-91469271D01*
X126272165Y-91682989D01*
X126272164Y-91682991D01*
X126251662Y-91904250D01*
X126251662Y-91904251D01*
X126272164Y-92125510D01*
X126272165Y-92125513D01*
X126297859Y-92215817D01*
X126297272Y-92285684D01*
X126259006Y-92344143D01*
X126195208Y-92372633D01*
X126178593Y-92373751D01*
X118557191Y-92373751D01*
X118490152Y-92354066D01*
X118469510Y-92337432D01*
X112021037Y-85888959D01*
X115777296Y-85888959D01*
X115806444Y-86035491D01*
X115806447Y-86035501D01*
X115863619Y-86173528D01*
X115863626Y-86173541D01*
X115946631Y-86297766D01*
X115946634Y-86297770D01*
X116052277Y-86403413D01*
X116052281Y-86403416D01*
X116176506Y-86486421D01*
X116176519Y-86486428D01*
X116314544Y-86543599D01*
X116314551Y-86543602D01*
X116314555Y-86543602D01*
X116314556Y-86543603D01*
X116461088Y-86572751D01*
X116461091Y-86572751D01*
X116610505Y-86572751D01*
X116718237Y-86551321D01*
X116757043Y-86543602D01*
X116895081Y-86486425D01*
X117019313Y-86403416D01*
X117124962Y-86297767D01*
X117207971Y-86173535D01*
X117265148Y-86035497D01*
X117294297Y-85888958D01*
X117807298Y-85888958D01*
X117836446Y-86035490D01*
X117836449Y-86035500D01*
X117893621Y-86173527D01*
X117893628Y-86173540D01*
X117976633Y-86297765D01*
X117976636Y-86297769D01*
X118082279Y-86403412D01*
X118082283Y-86403415D01*
X118206508Y-86486420D01*
X118206521Y-86486427D01*
X118344548Y-86543599D01*
X118344553Y-86543601D01*
X118344557Y-86543601D01*
X118344558Y-86543602D01*
X118491090Y-86572750D01*
X118604683Y-86572750D01*
X118671722Y-86592435D01*
X118717477Y-86645239D01*
X118728417Y-86704860D01*
X118720592Y-86824243D01*
X118720592Y-86824247D01*
X118720592Y-86824251D01*
X118740998Y-87135583D01*
X118801866Y-87441588D01*
X118801868Y-87441595D01*
X118801870Y-87441601D01*
X118902151Y-87737022D01*
X118902155Y-87737032D01*
X119021163Y-87978355D01*
X119040149Y-88016855D01*
X119168943Y-88209609D01*
X119213488Y-88276274D01*
X119419202Y-88510847D01*
X119467302Y-88553029D01*
X119653777Y-88716563D01*
X119913195Y-88889901D01*
X119993022Y-88929267D01*
X120193017Y-89027894D01*
X120193027Y-89027898D01*
X120404498Y-89099682D01*
X120488462Y-89128184D01*
X120794467Y-89189052D01*
X121105799Y-89209458D01*
X121417131Y-89189052D01*
X121723136Y-89128184D01*
X121938223Y-89055172D01*
X122018570Y-89027898D01*
X122018580Y-89027894D01*
X122298403Y-88889901D01*
X122557821Y-88716563D01*
X122792395Y-88510847D01*
X122998111Y-88276273D01*
X123171449Y-88016855D01*
X123309443Y-87737030D01*
X123409732Y-87441588D01*
X123470600Y-87135583D01*
X123491006Y-86824251D01*
X123470600Y-86512919D01*
X123465330Y-86486427D01*
X123441157Y-86364901D01*
X123430271Y-86310171D01*
X123436498Y-86240581D01*
X123479361Y-86185403D01*
X123545251Y-86162159D01*
X123599341Y-86171420D01*
X123658200Y-86195800D01*
X123704494Y-86206914D01*
X123903915Y-86254791D01*
X124155831Y-86274617D01*
X124407747Y-86254791D01*
X124653461Y-86195800D01*
X124886921Y-86099098D01*
X125102379Y-85967065D01*
X125294530Y-85802952D01*
X125458643Y-85610801D01*
X125590676Y-85395343D01*
X125687378Y-85161883D01*
X125746369Y-84916169D01*
X125766195Y-84664253D01*
X125746369Y-84412337D01*
X125687378Y-84166623D01*
X125656989Y-84093256D01*
X125590676Y-83933162D01*
X125458646Y-83717710D01*
X125458645Y-83717708D01*
X125458644Y-83717707D01*
X125458643Y-83717705D01*
X125294530Y-83525554D01*
X125102379Y-83361441D01*
X125102377Y-83361439D01*
X125102375Y-83361438D01*
X125102373Y-83361437D01*
X124969079Y-83279754D01*
X150599498Y-83279754D01*
X150640422Y-83432482D01*
X150640424Y-83432487D01*
X150643066Y-83437062D01*
X150643068Y-83437072D01*
X150643071Y-83437071D01*
X150719477Y-83569412D01*
X150719481Y-83569417D01*
X150838349Y-83688285D01*
X150838355Y-83688290D01*
X150962521Y-83812456D01*
X150996006Y-83873779D01*
X150998840Y-83900137D01*
X150998840Y-83904997D01*
X150998840Y-83905000D01*
X151018626Y-84093256D01*
X151018627Y-84093259D01*
X151077118Y-84273277D01*
X151077121Y-84273284D01*
X151171767Y-84437216D01*
X151298429Y-84577888D01*
X151451565Y-84689148D01*
X151451570Y-84689151D01*
X151624492Y-84766142D01*
X151624497Y-84766144D01*
X151809654Y-84805500D01*
X151809655Y-84805500D01*
X151998944Y-84805500D01*
X151998946Y-84805500D01*
X152184103Y-84766144D01*
X152357030Y-84689151D01*
X152510171Y-84577888D01*
X152636833Y-84437216D01*
X152731479Y-84273284D01*
X152789974Y-84093256D01*
X152809760Y-83905000D01*
X152789974Y-83716744D01*
X152731479Y-83536716D01*
X152636833Y-83372784D01*
X152618993Y-83352971D01*
X152588764Y-83289981D01*
X152597389Y-83220646D01*
X152618994Y-83187028D01*
X152626630Y-83178547D01*
X152636833Y-83167216D01*
X152731479Y-83003284D01*
X152789974Y-82823256D01*
X152809760Y-82635000D01*
X152809760Y-82634997D01*
X152809760Y-82630136D01*
X152829445Y-82563097D01*
X152846079Y-82542455D01*
X153878339Y-81510195D01*
X157145520Y-78243016D01*
X157224577Y-78106084D01*
X157265501Y-77953357D01*
X157265501Y-77795242D01*
X157265501Y-77787647D01*
X157265500Y-77787629D01*
X157265500Y-77581603D01*
X157285185Y-77514564D01*
X157337989Y-77468809D01*
X157407147Y-77458865D01*
X157441901Y-77469220D01*
X157591337Y-77538903D01*
X157819592Y-77600063D01*
X157994205Y-77615340D01*
X158054999Y-77620659D01*
X158055000Y-77620659D01*
X158055001Y-77620659D01*
X158115795Y-77615340D01*
X158290408Y-77600063D01*
X158518663Y-77538903D01*
X158518792Y-77538842D01*
X158518853Y-77538833D01*
X158523744Y-77537053D01*
X158524101Y-77538035D01*
X158587867Y-77528348D01*
X158651652Y-77556865D01*
X158689895Y-77615340D01*
X158695200Y-77651223D01*
X158695200Y-83178547D01*
X158675515Y-83245586D01*
X158663350Y-83261519D01*
X158563166Y-83372785D01*
X158468521Y-83536715D01*
X158468518Y-83536722D01*
X158421568Y-83681221D01*
X158410026Y-83716744D01*
X158390240Y-83905000D01*
X158410026Y-84093256D01*
X158410027Y-84093259D01*
X158468518Y-84273277D01*
X158468521Y-84273284D01*
X158563167Y-84437216D01*
X158689829Y-84577888D01*
X158842965Y-84689148D01*
X158842970Y-84689151D01*
X159015892Y-84766142D01*
X159015897Y-84766144D01*
X159201054Y-84805500D01*
X159201055Y-84805500D01*
X159390344Y-84805500D01*
X159390346Y-84805500D01*
X159575503Y-84766144D01*
X159748430Y-84689151D01*
X159901571Y-84577888D01*
X160028233Y-84437216D01*
X160122879Y-84273284D01*
X160181374Y-84093256D01*
X160201160Y-83905000D01*
X160181374Y-83716744D01*
X160122879Y-83536716D01*
X160028233Y-83372784D01*
X159944471Y-83279757D01*
X159928050Y-83261519D01*
X159897820Y-83198527D01*
X159896200Y-83178547D01*
X159896200Y-75054760D01*
X159896201Y-75054745D01*
X159896201Y-74886644D01*
X159891768Y-74870101D01*
X159855277Y-74733916D01*
X159855273Y-74733909D01*
X159776224Y-74596990D01*
X159776218Y-74596982D01*
X159387766Y-74208530D01*
X159354281Y-74147207D01*
X159355671Y-74088757D01*
X159390063Y-73960408D01*
X159410659Y-73725000D01*
X159390063Y-73489592D01*
X159328903Y-73261337D01*
X159229035Y-73047171D01*
X159223425Y-73039158D01*
X159093494Y-72853597D01*
X158926402Y-72686506D01*
X158926395Y-72686501D01*
X158732834Y-72550967D01*
X158732830Y-72550965D01*
X158732828Y-72550964D01*
X158518663Y-72451097D01*
X158518659Y-72451096D01*
X158518655Y-72451094D01*
X158290413Y-72389938D01*
X158290403Y-72389936D01*
X158055001Y-72369341D01*
X158054999Y-72369341D01*
X157819596Y-72389936D01*
X157819586Y-72389938D01*
X157591344Y-72451094D01*
X157591335Y-72451098D01*
X157377171Y-72550964D01*
X157377169Y-72550965D01*
X157183597Y-72686505D01*
X157016505Y-72853597D01*
X156886575Y-73039158D01*
X156831998Y-73082783D01*
X156762500Y-73089977D01*
X156700145Y-73058454D01*
X156683425Y-73039158D01*
X156553494Y-72853597D01*
X156386402Y-72686506D01*
X156386395Y-72686501D01*
X156192834Y-72550967D01*
X156192830Y-72550965D01*
X156192828Y-72550964D01*
X155978663Y-72451097D01*
X155978659Y-72451096D01*
X155978655Y-72451094D01*
X155750413Y-72389938D01*
X155750403Y-72389936D01*
X155515001Y-72369341D01*
X155514999Y-72369341D01*
X155279596Y-72389936D01*
X155279586Y-72389938D01*
X155051344Y-72451094D01*
X155051335Y-72451098D01*
X154837171Y-72550964D01*
X154837169Y-72550965D01*
X154643600Y-72686503D01*
X154521673Y-72808430D01*
X154460350Y-72841914D01*
X154390658Y-72836930D01*
X154334725Y-72795058D01*
X154317810Y-72764081D01*
X154268797Y-72632671D01*
X154268793Y-72632664D01*
X154182547Y-72517455D01*
X154182544Y-72517452D01*
X154067335Y-72431206D01*
X154067328Y-72431202D01*
X153932482Y-72380908D01*
X153932483Y-72380908D01*
X153872883Y-72374501D01*
X153872881Y-72374500D01*
X153872873Y-72374500D01*
X153872864Y-72374500D01*
X152077129Y-72374500D01*
X152077123Y-72374501D01*
X152017516Y-72380908D01*
X151882671Y-72431202D01*
X151882664Y-72431206D01*
X151767455Y-72517452D01*
X151767452Y-72517455D01*
X151681206Y-72632664D01*
X151681202Y-72632671D01*
X151630908Y-72767517D01*
X151624501Y-72827116D01*
X151624500Y-72827135D01*
X151624500Y-74622870D01*
X151624501Y-74622876D01*
X151630908Y-74682483D01*
X151681202Y-74817328D01*
X151681206Y-74817335D01*
X151767452Y-74932544D01*
X151767455Y-74932547D01*
X151882664Y-75018793D01*
X151882671Y-75018797D01*
X152014081Y-75067810D01*
X152070015Y-75109681D01*
X152094432Y-75175145D01*
X152079580Y-75243418D01*
X152058430Y-75271673D01*
X151936503Y-75393600D01*
X151800965Y-75587169D01*
X151800964Y-75587171D01*
X151701098Y-75801335D01*
X151701094Y-75801344D01*
X151639938Y-76029586D01*
X151639936Y-76029596D01*
X151619341Y-76264999D01*
X151619341Y-76265000D01*
X151639936Y-76500403D01*
X151639938Y-76500413D01*
X151674327Y-76628756D01*
X151672664Y-76698606D01*
X151642233Y-76748530D01*
X150831286Y-77559478D01*
X150719482Y-77671281D01*
X150719480Y-77671283D01*
X150719480Y-77671284D01*
X150674363Y-77749429D01*
X150674362Y-77749429D01*
X150640424Y-77808212D01*
X150640423Y-77808213D01*
X150623572Y-77871101D01*
X150599499Y-77960943D01*
X150599499Y-77960945D01*
X150599499Y-78129046D01*
X150599500Y-78129059D01*
X150599500Y-83114030D01*
X150599499Y-83114048D01*
X150599499Y-83279754D01*
X150599498Y-83279754D01*
X124969079Y-83279754D01*
X124886921Y-83229407D01*
X124653461Y-83132705D01*
X124407743Y-83073714D01*
X124407744Y-83073714D01*
X124155831Y-83053889D01*
X123903918Y-83073714D01*
X123658200Y-83132705D01*
X123424740Y-83229407D01*
X123209288Y-83361437D01*
X123209286Y-83361438D01*
X123017132Y-83525554D01*
X122853016Y-83717708D01*
X122853015Y-83717710D01*
X122720985Y-83933162D01*
X122624283Y-84166622D01*
X122565292Y-84412340D01*
X122545467Y-84664256D01*
X122545467Y-84664257D01*
X122546959Y-84683225D01*
X122532592Y-84751602D01*
X122483539Y-84801357D01*
X122415373Y-84816693D01*
X122354451Y-84796051D01*
X122298403Y-84758601D01*
X122298391Y-84758595D01*
X122018580Y-84620607D01*
X122018570Y-84620603D01*
X121723149Y-84520322D01*
X121723143Y-84520320D01*
X121723136Y-84520318D01*
X121417131Y-84459450D01*
X121105799Y-84439044D01*
X120794467Y-84459450D01*
X120794461Y-84459451D01*
X120794456Y-84459452D01*
X120488467Y-84520317D01*
X120488462Y-84520318D01*
X120488457Y-84520319D01*
X120488448Y-84520322D01*
X120193027Y-84620603D01*
X120193017Y-84620607D01*
X119913205Y-84758595D01*
X119913190Y-84758604D01*
X119653775Y-84931940D01*
X119419202Y-85137654D01*
X119292824Y-85281762D01*
X119233822Y-85319186D01*
X119163954Y-85318770D01*
X119111915Y-85287684D01*
X119049318Y-85225087D01*
X119049314Y-85225084D01*
X118925089Y-85142079D01*
X118925076Y-85142072D01*
X118787049Y-85084900D01*
X118787039Y-85084897D01*
X118640507Y-85055750D01*
X118640505Y-85055750D01*
X118491093Y-85055750D01*
X118491091Y-85055750D01*
X118344558Y-85084897D01*
X118344548Y-85084900D01*
X118206521Y-85142072D01*
X118206508Y-85142079D01*
X118082283Y-85225084D01*
X118082279Y-85225087D01*
X117976636Y-85330730D01*
X117976633Y-85330734D01*
X117893628Y-85454959D01*
X117893621Y-85454972D01*
X117836449Y-85592999D01*
X117836446Y-85593009D01*
X117807299Y-85739541D01*
X117807299Y-85739542D01*
X117807299Y-85739544D01*
X117807299Y-85888956D01*
X117807299Y-85888958D01*
X117807298Y-85888958D01*
X117294297Y-85888958D01*
X117294297Y-85888957D01*
X117294297Y-85739545D01*
X117294297Y-85739544D01*
X117294297Y-85739542D01*
X117265149Y-85593010D01*
X117265148Y-85593009D01*
X117265148Y-85593005D01*
X117265146Y-85592999D01*
X117207974Y-85454973D01*
X117207967Y-85454960D01*
X117124962Y-85330735D01*
X117124959Y-85330731D01*
X117019316Y-85225088D01*
X117019312Y-85225085D01*
X116895087Y-85142080D01*
X116895074Y-85142073D01*
X116757047Y-85084901D01*
X116757037Y-85084898D01*
X116610505Y-85055751D01*
X116610503Y-85055751D01*
X116461091Y-85055751D01*
X116461089Y-85055751D01*
X116314556Y-85084898D01*
X116314546Y-85084901D01*
X116176519Y-85142073D01*
X116176506Y-85142080D01*
X116052281Y-85225085D01*
X116052277Y-85225088D01*
X115946634Y-85330731D01*
X115946631Y-85330735D01*
X115863626Y-85454960D01*
X115863619Y-85454973D01*
X115806447Y-85593000D01*
X115806444Y-85593010D01*
X115777297Y-85739542D01*
X115777297Y-85739544D01*
X115777297Y-85739545D01*
X115777297Y-85888957D01*
X115777297Y-85888959D01*
X115777296Y-85888959D01*
X112021037Y-85888959D01*
X111166419Y-85034341D01*
X111132934Y-84973018D01*
X111130100Y-84946660D01*
X111130100Y-83072550D01*
X111149785Y-83005511D01*
X111202589Y-82959756D01*
X111271747Y-82949812D01*
X111276886Y-82950661D01*
X111382476Y-82970400D01*
X111597525Y-82970400D01*
X111808916Y-82930883D01*
X111808926Y-82930880D01*
X112009450Y-82853197D01*
X112009452Y-82853196D01*
X112114561Y-82788114D01*
X111542847Y-82216400D01*
X111543504Y-82216400D01*
X111646865Y-82188705D01*
X111739536Y-82135201D01*
X111815201Y-82059536D01*
X111868705Y-81966865D01*
X111896400Y-81863504D01*
X111896400Y-81862847D01*
X112470588Y-82437035D01*
X112480816Y-82423491D01*
X112576674Y-82230984D01*
X112635528Y-82024131D01*
X112636529Y-82013333D01*
X112662315Y-81948396D01*
X112719116Y-81907709D01*
X112788897Y-81904189D01*
X112849503Y-81938954D01*
X112881693Y-82000967D01*
X112883471Y-82013333D01*
X112884471Y-82024131D01*
X112943325Y-82230984D01*
X113039182Y-82423489D01*
X113049410Y-82437034D01*
X113049411Y-82437035D01*
X113623600Y-81862846D01*
X113623600Y-81863504D01*
X113651295Y-81966865D01*
X113704799Y-82059536D01*
X113780464Y-82135201D01*
X113873135Y-82188705D01*
X113976496Y-82216400D01*
X113977153Y-82216400D01*
X113405437Y-82788114D01*
X113510551Y-82853197D01*
X113711083Y-82930883D01*
X113922475Y-82970400D01*
X114137525Y-82970400D01*
X114348916Y-82930883D01*
X114348926Y-82930880D01*
X114549450Y-82853197D01*
X114549452Y-82853196D01*
X114654561Y-82788114D01*
X114082848Y-82216400D01*
X114083504Y-82216400D01*
X114186865Y-82188705D01*
X114279536Y-82135201D01*
X114355201Y-82059536D01*
X114408705Y-81966865D01*
X114436400Y-81863504D01*
X114436400Y-81862847D01*
X115010588Y-82437035D01*
X115020816Y-82423491D01*
X115116674Y-82230984D01*
X115175528Y-82024131D01*
X115176529Y-82013333D01*
X115202315Y-81948396D01*
X115259116Y-81907709D01*
X115328897Y-81904189D01*
X115389503Y-81938954D01*
X115421693Y-82000967D01*
X115423471Y-82013333D01*
X115424471Y-82024131D01*
X115483325Y-82230984D01*
X115579182Y-82423489D01*
X115589410Y-82437034D01*
X115589411Y-82437035D01*
X116163600Y-81862846D01*
X116163600Y-81863504D01*
X116191295Y-81966865D01*
X116244799Y-82059536D01*
X116320464Y-82135201D01*
X116413135Y-82188705D01*
X116516496Y-82216400D01*
X116517153Y-82216400D01*
X115945437Y-82788114D01*
X116050551Y-82853197D01*
X116251083Y-82930883D01*
X116462475Y-82970400D01*
X116677525Y-82970400D01*
X116888916Y-82930883D01*
X116888926Y-82930880D01*
X117089450Y-82853197D01*
X117089452Y-82853196D01*
X117194561Y-82788114D01*
X116622848Y-82216400D01*
X116623504Y-82216400D01*
X116726865Y-82188705D01*
X116819536Y-82135201D01*
X116895201Y-82059536D01*
X116948705Y-81966865D01*
X116976400Y-81863504D01*
X116976400Y-81862847D01*
X117550588Y-82437035D01*
X117560816Y-82423491D01*
X117656675Y-82230983D01*
X117705833Y-82058206D01*
X117743112Y-81999112D01*
X117806421Y-81969554D01*
X117875661Y-81978915D01*
X117928848Y-82024225D01*
X117949096Y-82091096D01*
X117949100Y-82092139D01*
X117949100Y-82518270D01*
X117949101Y-82518276D01*
X117955508Y-82577883D01*
X118005802Y-82712728D01*
X118005806Y-82712735D01*
X118092052Y-82827944D01*
X118092055Y-82827947D01*
X118207264Y-82914193D01*
X118207271Y-82914197D01*
X118342117Y-82964491D01*
X118342116Y-82964491D01*
X118349044Y-82965235D01*
X118401727Y-82970900D01*
X119818272Y-82970899D01*
X119877883Y-82964491D01*
X120012731Y-82914196D01*
X120127946Y-82827946D01*
X120214196Y-82712731D01*
X120264491Y-82577883D01*
X120270900Y-82518273D01*
X120270899Y-81101728D01*
X120264491Y-81042117D01*
X120214196Y-80907269D01*
X120214195Y-80907268D01*
X120214193Y-80907264D01*
X120127947Y-80792055D01*
X120127944Y-80792052D01*
X120012735Y-80705806D01*
X120012728Y-80705802D01*
X119877882Y-80655508D01*
X119877883Y-80655508D01*
X119818283Y-80649101D01*
X119818281Y-80649100D01*
X119818273Y-80649100D01*
X119818264Y-80649100D01*
X118401729Y-80649100D01*
X118401723Y-80649101D01*
X118342116Y-80655508D01*
X118207271Y-80705802D01*
X118207264Y-80705806D01*
X118092055Y-80792052D01*
X118092052Y-80792055D01*
X118005806Y-80907264D01*
X118005802Y-80907271D01*
X117955508Y-81042117D01*
X117949101Y-81101716D01*
X117949101Y-81101723D01*
X117949100Y-81101735D01*
X117949100Y-81527858D01*
X117929415Y-81594897D01*
X117876611Y-81640652D01*
X117807453Y-81650596D01*
X117743897Y-81621571D01*
X117706123Y-81562793D01*
X117705833Y-81561792D01*
X117656674Y-81389015D01*
X117560821Y-81196517D01*
X117560813Y-81196504D01*
X117550587Y-81182963D01*
X116976400Y-81757151D01*
X116976400Y-81756496D01*
X116948705Y-81653135D01*
X116895201Y-81560464D01*
X116819536Y-81484799D01*
X116726865Y-81431295D01*
X116623504Y-81403600D01*
X116622847Y-81403600D01*
X117194561Y-80831884D01*
X117194560Y-80831883D01*
X117089454Y-80766804D01*
X117089448Y-80766802D01*
X116888916Y-80689116D01*
X116677525Y-80649600D01*
X116462475Y-80649600D01*
X116251083Y-80689116D01*
X116251082Y-80689116D01*
X116050552Y-80766801D01*
X115945437Y-80831884D01*
X116517154Y-81403600D01*
X116516496Y-81403600D01*
X116413135Y-81431295D01*
X116320464Y-81484799D01*
X116244799Y-81560464D01*
X116191295Y-81653135D01*
X116163600Y-81756496D01*
X116163600Y-81757153D01*
X115589411Y-81182964D01*
X115579179Y-81196515D01*
X115483325Y-81389015D01*
X115424471Y-81595868D01*
X115423471Y-81606666D01*
X115397684Y-81671603D01*
X115340884Y-81712290D01*
X115271103Y-81715810D01*
X115210496Y-81681044D01*
X115178307Y-81619031D01*
X115176529Y-81606666D01*
X115175528Y-81595868D01*
X115116674Y-81389015D01*
X115020821Y-81196517D01*
X115020813Y-81196504D01*
X115010587Y-81182963D01*
X114436400Y-81757151D01*
X114436400Y-81756496D01*
X114408705Y-81653135D01*
X114355201Y-81560464D01*
X114279536Y-81484799D01*
X114186865Y-81431295D01*
X114083504Y-81403600D01*
X114082847Y-81403600D01*
X114654561Y-80831884D01*
X114654560Y-80831883D01*
X114549454Y-80766804D01*
X114549448Y-80766802D01*
X114348916Y-80689116D01*
X114137525Y-80649600D01*
X113922475Y-80649600D01*
X113711083Y-80689116D01*
X113711082Y-80689116D01*
X113510552Y-80766801D01*
X113405437Y-80831884D01*
X113977154Y-81403600D01*
X113976496Y-81403600D01*
X113873135Y-81431295D01*
X113780464Y-81484799D01*
X113704799Y-81560464D01*
X113651295Y-81653135D01*
X113623600Y-81756496D01*
X113623600Y-81757153D01*
X113049411Y-81182964D01*
X113039179Y-81196515D01*
X112943325Y-81389015D01*
X112884471Y-81595868D01*
X112883471Y-81606666D01*
X112857684Y-81671603D01*
X112800884Y-81712290D01*
X112731103Y-81715810D01*
X112670496Y-81681044D01*
X112638307Y-81619031D01*
X112636529Y-81606666D01*
X112635528Y-81595868D01*
X112576674Y-81389015D01*
X112480821Y-81196517D01*
X112480813Y-81196504D01*
X112470587Y-81182963D01*
X111896400Y-81757151D01*
X111896400Y-81756496D01*
X111868705Y-81653135D01*
X111815201Y-81560464D01*
X111739536Y-81484799D01*
X111646865Y-81431295D01*
X111543504Y-81403600D01*
X111542846Y-81403600D01*
X112114561Y-80831884D01*
X112114560Y-80831883D01*
X112009454Y-80766804D01*
X112009448Y-80766802D01*
X111808916Y-80689116D01*
X111597525Y-80649600D01*
X111382475Y-80649600D01*
X111276885Y-80669338D01*
X111207370Y-80662307D01*
X111152691Y-80618809D01*
X111130209Y-80552655D01*
X111130100Y-80547449D01*
X111130100Y-79504786D01*
X123799500Y-79504786D01*
X123799500Y-81200521D01*
X123799501Y-81200527D01*
X123805908Y-81260134D01*
X123856202Y-81394979D01*
X123856206Y-81394986D01*
X123942452Y-81510195D01*
X123942455Y-81510198D01*
X124057664Y-81596444D01*
X124057671Y-81596448D01*
X124192517Y-81646742D01*
X124192516Y-81646742D01*
X124199444Y-81647486D01*
X124252127Y-81653151D01*
X125947872Y-81653150D01*
X126007483Y-81646742D01*
X126142331Y-81596447D01*
X126257546Y-81510197D01*
X126343796Y-81394982D01*
X126394091Y-81260134D01*
X126400500Y-81200524D01*
X126400500Y-80358395D01*
X132356958Y-80358395D01*
X132356958Y-80358406D01*
X132377491Y-80606213D01*
X132377493Y-80606225D01*
X132438537Y-80847282D01*
X132538427Y-81075007D01*
X132674434Y-81283183D01*
X132674437Y-81283186D01*
X132842857Y-81466139D01*
X133039092Y-81618875D01*
X133257791Y-81737229D01*
X133492987Y-81817972D01*
X133738266Y-81858901D01*
X133986936Y-81858901D01*
X134232215Y-81817972D01*
X134467411Y-81737229D01*
X134686110Y-81618875D01*
X134882345Y-81466139D01*
X135050765Y-81283186D01*
X135186774Y-81075008D01*
X135286664Y-80847282D01*
X135347709Y-80606222D01*
X135359367Y-80465531D01*
X135368244Y-80358406D01*
X135368244Y-80358395D01*
X137360758Y-80358395D01*
X137360758Y-80358406D01*
X137381291Y-80606213D01*
X137381293Y-80606225D01*
X137442337Y-80847282D01*
X137542227Y-81075007D01*
X137678234Y-81283183D01*
X137678237Y-81283186D01*
X137846657Y-81466139D01*
X138042892Y-81618875D01*
X138261591Y-81737229D01*
X138496787Y-81817972D01*
X138742066Y-81858901D01*
X138990736Y-81858901D01*
X139236015Y-81817972D01*
X139471211Y-81737229D01*
X139689910Y-81618875D01*
X139886145Y-81466139D01*
X140054565Y-81283186D01*
X140190574Y-81075008D01*
X140290464Y-80847282D01*
X140351509Y-80606222D01*
X140363167Y-80465531D01*
X140372044Y-80358406D01*
X140372044Y-80358395D01*
X140351510Y-80110588D01*
X140351508Y-80110576D01*
X140290464Y-79869519D01*
X140190574Y-79641794D01*
X140054567Y-79433618D01*
X140032958Y-79410145D01*
X139886145Y-79250663D01*
X139689910Y-79097927D01*
X139689908Y-79097926D01*
X139689907Y-79097925D01*
X139471212Y-78979573D01*
X139471203Y-78979570D01*
X139236017Y-78898830D01*
X138990736Y-78857901D01*
X138742066Y-78857901D01*
X138496784Y-78898830D01*
X138261598Y-78979570D01*
X138261589Y-78979573D01*
X138042894Y-79097925D01*
X137846658Y-79250662D01*
X137678234Y-79433618D01*
X137542227Y-79641794D01*
X137442337Y-79869519D01*
X137381293Y-80110576D01*
X137381291Y-80110588D01*
X137360758Y-80358395D01*
X135368244Y-80358395D01*
X135347710Y-80110588D01*
X135347708Y-80110576D01*
X135286664Y-79869519D01*
X135186774Y-79641794D01*
X135050767Y-79433618D01*
X135029158Y-79410145D01*
X134882345Y-79250663D01*
X134686110Y-79097927D01*
X134686108Y-79097926D01*
X134686107Y-79097925D01*
X134467412Y-78979573D01*
X134467403Y-78979570D01*
X134232217Y-78898830D01*
X133986936Y-78857901D01*
X133738266Y-78857901D01*
X133492984Y-78898830D01*
X133257798Y-78979570D01*
X133257789Y-78979573D01*
X133039094Y-79097925D01*
X132842858Y-79250662D01*
X132674434Y-79433618D01*
X132538427Y-79641794D01*
X132438537Y-79869519D01*
X132377493Y-80110576D01*
X132377491Y-80110588D01*
X132356958Y-80358395D01*
X126400500Y-80358395D01*
X126400499Y-79504779D01*
X126394091Y-79445168D01*
X126389782Y-79433616D01*
X126343797Y-79310322D01*
X126343793Y-79310315D01*
X126257547Y-79195106D01*
X126257544Y-79195103D01*
X126142335Y-79108857D01*
X126142328Y-79108853D01*
X126007482Y-79058559D01*
X126007483Y-79058559D01*
X125947883Y-79052152D01*
X125947881Y-79052151D01*
X125947873Y-79052151D01*
X125947864Y-79052151D01*
X124252129Y-79052151D01*
X124252123Y-79052152D01*
X124192516Y-79058559D01*
X124057671Y-79108853D01*
X124057664Y-79108857D01*
X123942455Y-79195103D01*
X123942452Y-79195106D01*
X123856206Y-79310315D01*
X123856202Y-79310322D01*
X123805908Y-79445168D01*
X123799501Y-79504767D01*
X123799501Y-79504774D01*
X123799500Y-79504786D01*
X111130100Y-79504786D01*
X111130100Y-76852648D01*
X123795034Y-76852648D01*
X123795034Y-76852653D01*
X123814858Y-77079250D01*
X123814860Y-77079261D01*
X123873730Y-77298968D01*
X123873735Y-77298982D01*
X123969863Y-77505129D01*
X124020974Y-77578123D01*
X124700000Y-76899097D01*
X124700000Y-76905312D01*
X124727259Y-77007045D01*
X124779920Y-77098257D01*
X124854394Y-77172731D01*
X124945606Y-77225392D01*
X125047339Y-77252651D01*
X125053553Y-77252651D01*
X124374526Y-77931676D01*
X124447513Y-77982783D01*
X124447521Y-77982787D01*
X124653668Y-78078915D01*
X124653682Y-78078920D01*
X124873389Y-78137790D01*
X124873400Y-78137792D01*
X125099998Y-78157617D01*
X125100002Y-78157617D01*
X125326599Y-78137792D01*
X125326610Y-78137790D01*
X125546317Y-78078920D01*
X125546331Y-78078915D01*
X125752478Y-77982787D01*
X125825471Y-77931675D01*
X125146447Y-77252651D01*
X125152661Y-77252651D01*
X125254394Y-77225392D01*
X125345606Y-77172731D01*
X125420080Y-77098257D01*
X125472741Y-77007045D01*
X125500000Y-76905312D01*
X125500000Y-76899098D01*
X126179024Y-77578122D01*
X126230136Y-77505129D01*
X126326264Y-77298982D01*
X126326269Y-77298968D01*
X126385139Y-77079261D01*
X126385141Y-77079250D01*
X126404966Y-76852653D01*
X126404966Y-76852648D01*
X126385141Y-76626051D01*
X126385139Y-76626040D01*
X126326269Y-76406333D01*
X126326264Y-76406319D01*
X126309606Y-76370595D01*
X132356958Y-76370595D01*
X132356958Y-76370606D01*
X132377491Y-76618413D01*
X132377493Y-76618425D01*
X132438537Y-76859482D01*
X132538427Y-77087207D01*
X132674434Y-77295383D01*
X132674437Y-77295386D01*
X132842857Y-77478339D01*
X133039092Y-77631075D01*
X133257791Y-77749429D01*
X133492987Y-77830172D01*
X133738266Y-77871101D01*
X133986936Y-77871101D01*
X134232215Y-77830172D01*
X134467411Y-77749429D01*
X134686110Y-77631075D01*
X134882345Y-77478339D01*
X135050765Y-77295386D01*
X135186774Y-77087208D01*
X135286664Y-76859482D01*
X135347709Y-76618422D01*
X135354823Y-76532571D01*
X135368244Y-76370606D01*
X135368244Y-76370595D01*
X137360758Y-76370595D01*
X137360758Y-76370606D01*
X137381291Y-76618413D01*
X137381293Y-76618425D01*
X137442337Y-76859482D01*
X137542227Y-77087207D01*
X137678234Y-77295383D01*
X137678237Y-77295386D01*
X137846657Y-77478339D01*
X138042892Y-77631075D01*
X138261591Y-77749429D01*
X138496787Y-77830172D01*
X138742066Y-77871101D01*
X138990736Y-77871101D01*
X139236015Y-77830172D01*
X139471211Y-77749429D01*
X139689910Y-77631075D01*
X139886145Y-77478339D01*
X140054565Y-77295386D01*
X140190574Y-77087208D01*
X140290464Y-76859482D01*
X140351509Y-76618422D01*
X140358623Y-76532571D01*
X140372044Y-76370606D01*
X140372044Y-76370595D01*
X140351510Y-76122788D01*
X140351508Y-76122776D01*
X140290464Y-75881719D01*
X140190574Y-75653994D01*
X140054567Y-75445818D01*
X140006496Y-75393599D01*
X139886145Y-75262863D01*
X139689910Y-75110127D01*
X139689908Y-75110126D01*
X139689907Y-75110125D01*
X139471212Y-74991773D01*
X139471203Y-74991770D01*
X139236017Y-74911030D01*
X138990736Y-74870101D01*
X138742066Y-74870101D01*
X138496784Y-74911030D01*
X138261598Y-74991770D01*
X138261589Y-74991773D01*
X138042894Y-75110125D01*
X137846658Y-75262862D01*
X137678234Y-75445818D01*
X137542227Y-75653994D01*
X137442337Y-75881719D01*
X137381293Y-76122776D01*
X137381291Y-76122788D01*
X137360758Y-76370595D01*
X135368244Y-76370595D01*
X135347710Y-76122788D01*
X135347708Y-76122776D01*
X135286664Y-75881719D01*
X135186774Y-75653994D01*
X135050767Y-75445818D01*
X135002696Y-75393599D01*
X134882345Y-75262863D01*
X134686110Y-75110127D01*
X134686108Y-75110126D01*
X134686107Y-75110125D01*
X134467412Y-74991773D01*
X134467403Y-74991770D01*
X134232217Y-74911030D01*
X133986936Y-74870101D01*
X133738266Y-74870101D01*
X133492984Y-74911030D01*
X133257798Y-74991770D01*
X133257789Y-74991773D01*
X133039094Y-75110125D01*
X132842858Y-75262862D01*
X132674434Y-75445818D01*
X132538427Y-75653994D01*
X132438537Y-75881719D01*
X132377493Y-76122776D01*
X132377491Y-76122788D01*
X132356958Y-76370595D01*
X126309606Y-76370595D01*
X126230136Y-76200172D01*
X126230132Y-76200164D01*
X126179025Y-76127177D01*
X125500000Y-76806202D01*
X125500000Y-76799990D01*
X125472741Y-76698257D01*
X125420080Y-76607045D01*
X125345606Y-76532571D01*
X125254394Y-76479910D01*
X125152661Y-76452651D01*
X125146445Y-76452651D01*
X125825472Y-75773625D01*
X125752478Y-75722514D01*
X125546331Y-75626386D01*
X125546317Y-75626381D01*
X125326610Y-75567511D01*
X125326599Y-75567509D01*
X125100002Y-75547685D01*
X125099998Y-75547685D01*
X124873400Y-75567509D01*
X124873389Y-75567511D01*
X124653682Y-75626381D01*
X124653673Y-75626385D01*
X124447516Y-75722517D01*
X124447512Y-75722519D01*
X124374526Y-75773624D01*
X124374526Y-75773625D01*
X125053553Y-76452651D01*
X125047339Y-76452651D01*
X124945606Y-76479910D01*
X124854394Y-76532571D01*
X124779920Y-76607045D01*
X124727259Y-76698257D01*
X124700000Y-76799990D01*
X124700000Y-76806203D01*
X124020974Y-76127177D01*
X124020973Y-76127177D01*
X123969868Y-76200163D01*
X123969866Y-76200167D01*
X123873734Y-76406324D01*
X123873730Y-76406333D01*
X123814860Y-76626040D01*
X123814858Y-76626051D01*
X123795034Y-76852648D01*
X111130100Y-76852648D01*
X111130100Y-75733340D01*
X111149785Y-75666301D01*
X111166419Y-75645659D01*
X111424859Y-75387219D01*
X111486182Y-75353734D01*
X111512540Y-75350900D01*
X111597571Y-75350900D01*
X111597573Y-75350900D01*
X111809056Y-75311367D01*
X112009674Y-75233647D01*
X112192595Y-75120387D01*
X112351591Y-74975444D01*
X112481245Y-74803753D01*
X112577144Y-74611162D01*
X112636022Y-74404229D01*
X112636529Y-74398758D01*
X112662315Y-74333820D01*
X112719115Y-74293132D01*
X112788896Y-74289612D01*
X112849503Y-74324377D01*
X112881693Y-74386389D01*
X112883471Y-74398758D01*
X112883977Y-74404227D01*
X112942855Y-74611159D01*
X112942860Y-74611172D01*
X113038751Y-74803746D01*
X113038753Y-74803749D01*
X113038755Y-74803753D01*
X113038758Y-74803757D01*
X113038760Y-74803760D01*
X113088858Y-74870101D01*
X113168409Y-74975444D01*
X113168412Y-74975446D01*
X113168414Y-74975449D01*
X113327402Y-75120385D01*
X113327404Y-75120386D01*
X113327405Y-75120387D01*
X113510326Y-75233647D01*
X113710944Y-75311367D01*
X113922427Y-75350900D01*
X113922429Y-75350900D01*
X114137571Y-75350900D01*
X114137573Y-75350900D01*
X114349056Y-75311367D01*
X114549674Y-75233647D01*
X114732595Y-75120387D01*
X114891591Y-74975444D01*
X115021245Y-74803753D01*
X115117144Y-74611162D01*
X115176022Y-74404229D01*
X115176529Y-74398758D01*
X115202315Y-74333820D01*
X115259115Y-74293132D01*
X115328896Y-74289612D01*
X115389503Y-74324377D01*
X115421693Y-74386389D01*
X115423471Y-74398758D01*
X115423977Y-74404227D01*
X115482855Y-74611159D01*
X115482860Y-74611172D01*
X115578751Y-74803746D01*
X115578753Y-74803749D01*
X115578755Y-74803753D01*
X115578758Y-74803757D01*
X115578760Y-74803760D01*
X115628858Y-74870101D01*
X115708409Y-74975444D01*
X115708412Y-74975446D01*
X115708414Y-74975449D01*
X115867402Y-75120385D01*
X115867404Y-75120386D01*
X115867405Y-75120387D01*
X116050326Y-75233647D01*
X116250944Y-75311367D01*
X116462427Y-75350900D01*
X116462429Y-75350900D01*
X116677571Y-75350900D01*
X116677573Y-75350900D01*
X116889056Y-75311367D01*
X117089674Y-75233647D01*
X117272595Y-75120387D01*
X117431591Y-74975444D01*
X117561245Y-74803753D01*
X117657144Y-74611162D01*
X117716022Y-74404229D01*
X117716529Y-74398758D01*
X117742315Y-74333820D01*
X117799115Y-74293132D01*
X117868896Y-74289612D01*
X117929503Y-74324377D01*
X117961693Y-74386389D01*
X117963471Y-74398758D01*
X117963977Y-74404227D01*
X118022855Y-74611159D01*
X118022860Y-74611172D01*
X118118751Y-74803746D01*
X118118753Y-74803749D01*
X118118755Y-74803753D01*
X118118758Y-74803757D01*
X118118760Y-74803760D01*
X118168858Y-74870101D01*
X118248409Y-74975444D01*
X118248412Y-74975446D01*
X118248414Y-74975449D01*
X118407402Y-75120385D01*
X118407404Y-75120386D01*
X118407405Y-75120387D01*
X118590326Y-75233647D01*
X118790944Y-75311367D01*
X119002427Y-75350900D01*
X119002429Y-75350900D01*
X119217571Y-75350900D01*
X119217573Y-75350900D01*
X119429056Y-75311367D01*
X119629674Y-75233647D01*
X119812595Y-75120387D01*
X119971591Y-74975444D01*
X120101245Y-74803753D01*
X120197144Y-74611162D01*
X120256022Y-74404229D01*
X120275873Y-74190000D01*
X120256022Y-73975771D01*
X120197144Y-73768838D01*
X120175315Y-73725000D01*
X120101248Y-73576253D01*
X120101247Y-73576252D01*
X120101245Y-73576247D01*
X119971591Y-73404556D01*
X119971587Y-73404552D01*
X119971585Y-73404550D01*
X119812597Y-73259614D01*
X119772811Y-73234979D01*
X119629674Y-73146353D01*
X119429056Y-73068633D01*
X119217573Y-73029100D01*
X119002427Y-73029100D01*
X118790944Y-73068633D01*
X118760733Y-73080337D01*
X118590328Y-73146352D01*
X118590327Y-73146352D01*
X118407402Y-73259614D01*
X118248414Y-73404550D01*
X118248407Y-73404558D01*
X118118760Y-73576239D01*
X118118751Y-73576253D01*
X118022860Y-73768827D01*
X118022855Y-73768840D01*
X117963978Y-73975771D01*
X117963471Y-73981243D01*
X117937685Y-74046180D01*
X117880884Y-74086867D01*
X117811103Y-74090387D01*
X117750497Y-74055622D01*
X117718307Y-73993609D01*
X117716529Y-73981243D01*
X117716022Y-73975771D01*
X117657144Y-73768838D01*
X117635315Y-73725000D01*
X117561248Y-73576253D01*
X117561247Y-73576252D01*
X117561245Y-73576247D01*
X117431591Y-73404556D01*
X117431587Y-73404552D01*
X117431585Y-73404550D01*
X117272597Y-73259614D01*
X117232811Y-73234979D01*
X117089674Y-73146353D01*
X116889056Y-73068633D01*
X116677573Y-73029100D01*
X116462427Y-73029100D01*
X116250944Y-73068633D01*
X116220733Y-73080337D01*
X116050328Y-73146352D01*
X116050327Y-73146352D01*
X115867402Y-73259614D01*
X115708414Y-73404550D01*
X115708407Y-73404558D01*
X115578760Y-73576239D01*
X115578751Y-73576253D01*
X115482860Y-73768827D01*
X115482855Y-73768840D01*
X115423978Y-73975771D01*
X115423471Y-73981243D01*
X115397685Y-74046180D01*
X115340884Y-74086867D01*
X115271103Y-74090387D01*
X115210497Y-74055622D01*
X115178307Y-73993609D01*
X115176529Y-73981243D01*
X115176022Y-73975771D01*
X115117144Y-73768838D01*
X115095315Y-73725000D01*
X115021248Y-73576253D01*
X115021247Y-73576252D01*
X115021245Y-73576247D01*
X114891591Y-73404556D01*
X114891587Y-73404552D01*
X114891585Y-73404550D01*
X114732597Y-73259614D01*
X114692811Y-73234979D01*
X114549674Y-73146353D01*
X114349056Y-73068633D01*
X114137573Y-73029100D01*
X113922427Y-73029100D01*
X113710944Y-73068633D01*
X113680733Y-73080337D01*
X113510328Y-73146352D01*
X113510327Y-73146352D01*
X113327402Y-73259614D01*
X113168414Y-73404550D01*
X113168407Y-73404558D01*
X113038760Y-73576239D01*
X113038751Y-73576253D01*
X112942860Y-73768827D01*
X112942855Y-73768840D01*
X112883978Y-73975771D01*
X112883471Y-73981243D01*
X112857685Y-74046180D01*
X112800884Y-74086867D01*
X112731103Y-74090387D01*
X112670497Y-74055622D01*
X112638307Y-73993609D01*
X112636529Y-73981243D01*
X112636022Y-73975771D01*
X112577144Y-73768838D01*
X112555315Y-73725000D01*
X112481248Y-73576253D01*
X112481247Y-73576252D01*
X112481245Y-73576247D01*
X112351591Y-73404556D01*
X112351587Y-73404552D01*
X112351585Y-73404550D01*
X112192597Y-73259614D01*
X112152811Y-73234979D01*
X112009674Y-73146353D01*
X111809056Y-73068633D01*
X111597573Y-73029100D01*
X111382427Y-73029100D01*
X111170944Y-73068633D01*
X111140733Y-73080337D01*
X110970328Y-73146352D01*
X110970327Y-73146352D01*
X110787402Y-73259614D01*
X110628414Y-73404550D01*
X110628407Y-73404558D01*
X110498760Y-73576239D01*
X110498751Y-73576253D01*
X110402860Y-73768827D01*
X110402855Y-73768840D01*
X110343978Y-73975771D01*
X110324806Y-74182665D01*
X110299020Y-74247602D01*
X110289017Y-74258904D01*
X110212180Y-74335740D01*
X110150859Y-74369225D01*
X110081167Y-74364241D01*
X110025233Y-74322370D01*
X110000816Y-74256906D01*
X110000500Y-74248059D01*
X110000500Y-71624500D01*
X110020185Y-71557461D01*
X110072989Y-71511706D01*
X110124500Y-71500500D01*
X160875500Y-71500500D01*
X160942539Y-71520185D01*
G37*
%TD.AperFunction*%
%TD*%
M02*
