M48
; DRILL file {KiCad 8.0.9-1.fc41} date 2025-03-17T15:20:01+0200
; FORMAT={-:-/ absolute / inch / decimal}
; #@! TF.CreationDate,2025-03-17T15:20:01+02:00
; #@! TF.GenerationSoftware,Kicad,Pcbnew,8.0.9-1.fc41
; #@! TF.FileFunction,Plated,1,2,PTH
FMAT,2
INCH
; #@! TA.AperFunction,Plated,PTH,ViaDrill
T1C0.0157
; #@! TA.AperFunction,Plated,PTH,ComponentDrill
T2C0.0315
; #@! TA.AperFunction,Plated,PTH,ComponentDrill
T3C0.0320
; #@! TA.AperFunction,Plated,PTH,ComponentDrill
T4C0.0350
; #@! TA.AperFunction,Plated,PTH,ComponentDrill
T5C0.0394
; #@! TA.AperFunction,Plated,PTH,ComponentDrill
T6C0.0591
; #@! TA.AperFunction,Plated,PTH,ComponentDrill
T7C0.0670
; #@! TA.AperFunction,Plated,PTH,ComponentDrill
T8C0.1280
%
G90
G05
T1
X4.4818Y-3.0118
X4.685Y-3.0157
X4.8253Y-3.5866
X5.0157Y-3.9739
X5.3386Y-3.7598
X5.3386Y-3.8583
X5.4213Y-3.8716
X5.4409Y-3.3243
X5.5276Y-3.3243
X5.5709Y-3.8465
X5.6142Y-3.3243
X5.6786Y-3.9281
X5.6969Y-3.1314
X5.7047Y-3.341
X5.7283Y-3.6142
X5.7283Y-3.6535
X5.7756Y-3.7087
X5.8169Y-3.4285
X5.878Y-3.6024
X5.9685Y-3.9237
X5.9803Y-3.2033
X5.9805Y-3.2533
X5.9805Y-3.3033
X6.2441Y-3.9267
X6.2715Y-3.3033
T2
X4.9252Y-3.0257
X4.9252Y-3.1635
T3
X4.3894Y-2.9209
X4.3894Y-3.2209
X4.4894Y-2.9209
X4.4894Y-3.2209
X4.5894Y-2.9209
X4.5894Y-3.2209
X4.6894Y-2.9209
X4.6894Y-3.2209
T4
X5.0179Y-3.4183
X5.0179Y-3.5183
X5.0179Y-3.6183
X5.0179Y-3.7183
X5.0179Y-3.8183
X5.1179Y-3.4683
X5.1179Y-3.5683
X5.1179Y-3.6683
X5.1179Y-3.7683
X5.1179Y-3.8683
T5
X6.0226Y-2.9026
X6.0226Y-3.0026
X6.1226Y-2.9026
X6.1226Y-3.0026
X6.2226Y-2.9026
X6.2226Y-3.0026
T6
X5.2702Y-3.0067
X5.2702Y-3.1637
X5.4672Y-3.0067
X5.4672Y-3.1637
T7
X4.888Y-3.3332
X4.888Y-3.9533
T8
X4.7679Y-3.4183
X4.7679Y-3.8683
M30
